<svg width="1029" height="162" viewBox="0 0 1029 162" fill="none" xmlns="http://www.w3.org/2000/svg">
<rect width="1029" height="162" fill="white"/>
<path d="M95.816 111.192C94.792 112.045 92.872 113.197 90.056 114.648C87.3253 116.099 83.9547 117.379 79.944 118.488C75.9333 119.597 71.496 120.109 66.632 120.024C59.208 119.853 52.552 118.531 46.664 116.056C40.8613 113.496 35.912 110.04 31.816 105.688C27.8053 101.336 24.7333 96.344 22.6 90.712C20.4667 85.08 19.4 79.064 19.4 72.664C19.4 65.496 20.4667 58.9253 22.6 52.952C24.8187 46.9787 27.9333 41.816 31.944 37.464C36.04 33.112 40.904 29.7413 46.536 27.352C52.168 24.9627 58.3973 23.768 65.224 23.768C71.5387 23.768 77.128 24.6213 81.992 26.328C86.856 28.0347 90.824 29.8693 93.896 31.832L86.6 49.368C84.4667 47.7467 81.608 46.0827 78.024 44.376C74.5253 42.584 70.472 41.688 65.864 41.688C62.28 41.688 58.824 42.456 55.496 43.992C52.2533 45.4427 49.352 47.5333 46.792 50.264C44.3173 52.9947 42.3547 56.1947 40.904 59.864C39.4533 63.448 38.728 67.3733 38.728 71.64C38.728 76.1627 39.368 80.3013 40.648 84.056C42.0133 87.8107 43.9333 91.0533 46.408 93.784C48.8827 96.4293 51.8267 98.4773 55.24 99.928C58.7387 101.379 62.664 102.104 67.016 102.104C72.0507 102.104 76.36 101.293 79.944 99.672C83.528 98.0507 86.2587 96.344 88.136 94.552L95.816 111.192ZM107.114 90.328C107.114 84.6107 108.437 79.4907 111.082 74.968C113.813 70.4453 117.61 66.904 122.474 64.344C127.338 61.6987 132.927 60.376 139.242 60.376C145.642 60.376 151.189 61.6987 155.882 64.344C160.575 66.904 164.159 70.4453 166.634 74.968C169.194 79.4907 170.474 84.6107 170.474 90.328C170.474 96.0453 169.194 101.208 166.634 105.816C164.159 110.339 160.575 113.923 155.882 116.568C151.189 119.213 145.557 120.536 138.986 120.536C132.842 120.536 127.338 119.341 122.474 116.952C117.695 114.563 113.941 111.107 111.21 106.584C108.479 102.061 107.114 96.6427 107.114 90.328ZM125.162 90.456C125.162 93.3573 125.759 96.0027 126.954 98.392C128.149 100.696 129.77 102.531 131.818 103.896C133.866 105.261 136.17 105.944 138.73 105.944C141.546 105.944 143.978 105.261 146.026 103.896C148.074 102.531 149.653 100.696 150.762 98.392C151.871 96.0027 152.426 93.3573 152.426 90.456C152.426 87.4693 151.871 84.824 150.762 82.52C149.653 80.216 148.074 78.3813 146.026 77.016C143.978 75.6507 141.546 74.968 138.73 74.968C136.17 74.968 133.866 75.6507 131.818 77.016C129.77 78.3813 128.149 80.216 126.954 82.52C125.759 84.824 125.162 87.4693 125.162 90.456ZM200.847 63.064L202.255 73.048L201.999 72.152C203.962 68.6533 206.735 65.8373 210.319 63.704C213.903 61.4853 218.298 60.376 223.503 60.376C228.794 60.376 233.188 61.9547 236.687 65.112C240.271 68.184 242.106 72.1947 242.191 77.144V119H224.271V83.8C224.186 81.3253 223.503 79.3627 222.223 77.912C221.028 76.376 218.98 75.608 216.079 75.608C213.348 75.608 210.959 76.504 208.911 78.296C206.863 80.088 205.284 82.52 204.175 85.592C203.066 88.664 202.511 92.2053 202.511 96.216V119H184.591V63.064H200.847ZM278.767 120.152C274.159 120.152 269.85 119.341 265.839 117.72C261.914 116.099 258.586 113.837 255.855 110.936L263.279 101.08C266.01 103.555 268.527 105.347 270.831 106.456C273.22 107.48 275.354 107.992 277.231 107.992C278.682 107.992 279.962 107.864 281.071 107.608C282.266 107.267 283.204 106.797 283.887 106.2C284.57 105.517 284.911 104.664 284.911 103.64C284.911 102.189 284.314 101.037 283.119 100.184C282.01 99.3307 280.559 98.648 278.767 98.136C276.975 97.5387 275.055 96.9413 273.007 96.344C267.887 94.7227 264.175 92.376 261.871 89.304C259.652 86.1467 258.543 82.7333 258.543 79.064C258.543 76.248 259.268 73.432 260.719 70.616C262.255 67.7147 264.644 65.3253 267.887 63.448C271.215 61.4853 275.482 60.504 280.687 60.504C285.38 60.504 289.348 60.9733 292.591 61.912C295.834 62.8507 298.906 64.3867 301.807 66.52L295.023 77.016C293.402 75.736 291.567 74.6693 289.519 73.816C287.556 72.8773 285.722 72.3653 284.015 72.28C282.479 72.1947 281.156 72.3653 280.047 72.792C279.023 73.2187 278.212 73.7733 277.615 74.456C277.018 75.1387 276.719 75.864 276.719 76.632C276.634 78.2533 277.231 79.5333 278.511 80.472C279.876 81.4107 281.583 82.136 283.631 82.648C285.679 83.16 287.684 83.7573 289.647 84.44C292.378 85.2933 294.724 86.4453 296.687 87.896C298.65 89.3467 300.143 91.096 301.167 93.144C302.276 95.1067 302.831 97.496 302.831 100.312C302.831 103.725 301.935 106.968 300.143 110.04C298.436 113.027 295.791 115.459 292.207 117.336C288.708 119.213 284.228 120.152 278.767 120.152ZM365.329 114.008C362.854 115.971 359.74 117.549 355.985 118.744C352.316 119.939 348.689 120.536 345.105 120.536C338.705 120.536 333.116 119.384 328.337 117.08C323.644 114.691 319.974 111.32 317.329 106.968C314.769 102.531 313.489 97.1973 313.489 90.968C313.489 84.7387 314.897 79.448 317.713 75.096C320.529 70.6587 324.198 67.288 328.721 64.984C333.329 62.68 338.15 61.528 343.185 61.528C348.22 61.528 352.572 62.2107 356.241 63.576C359.996 64.9413 363.196 66.7333 365.841 68.952L357.137 80.472C355.942 79.5333 354.278 78.5947 352.145 77.656C350.097 76.632 347.665 76.12 344.849 76.12C342.374 76.12 340.113 76.76 338.065 78.04C336.017 79.32 334.396 81.0693 333.201 83.288C332.006 85.5067 331.409 88.0667 331.409 90.968C331.409 93.6987 332.049 96.216 333.329 98.52C334.609 100.824 336.358 102.659 338.577 104.024C340.881 105.304 343.569 105.944 346.641 105.944C348.604 105.944 350.396 105.688 352.017 105.176C353.724 104.579 355.174 103.768 356.369 102.744L365.329 114.008ZM379.091 63.064H397.011V119H379.091V63.064ZM378.707 43.224C378.707 40.5787 379.731 38.4027 381.779 36.696C383.912 34.9893 386.174 34.136 388.563 34.136C390.952 34.136 393.128 34.9893 395.091 36.696C397.139 38.4027 398.163 40.5787 398.163 43.224C398.163 45.8693 397.139 48.0453 395.091 49.752C393.128 51.3733 390.952 52.184 388.563 52.184C386.174 52.184 383.912 51.3733 381.779 49.752C379.731 48.0453 378.707 45.8693 378.707 43.224ZM442.986 120.536C436.159 120.536 430.357 119.256 425.578 116.696C420.885 114.136 417.301 110.595 414.826 106.072C412.351 101.549 411.114 96.344 411.114 90.456C411.114 84.824 412.565 79.7467 415.466 75.224C418.367 70.7013 422.25 67.1173 427.114 64.472C431.978 61.7413 437.397 60.376 443.37 60.376C451.391 60.376 457.962 62.7227 463.082 67.416C468.287 72.024 471.658 78.7227 473.194 87.512L429.674 101.336L425.706 91.608L457.194 80.984L453.482 82.648C452.799 80.4293 451.562 78.5093 449.77 76.888C448.063 75.1813 445.461 74.328 441.962 74.328C439.317 74.328 436.97 74.968 434.922 76.248C432.959 77.4427 431.423 79.192 430.314 81.496C429.29 83.7147 428.778 86.36 428.778 89.432C428.778 92.9307 429.418 95.8747 430.698 98.264C431.978 100.568 433.727 102.317 435.946 103.512C438.165 104.707 440.639 105.304 443.37 105.304C445.333 105.304 447.21 104.963 449.002 104.28C450.879 103.597 452.714 102.701 454.506 101.592L462.442 114.904C459.455 116.611 456.213 117.976 452.714 119C449.301 120.024 446.058 120.536 442.986 120.536ZM502.472 63.064L503.88 73.048L503.624 72.152C505.587 68.6533 508.36 65.8373 511.944 63.704C515.528 61.4853 519.923 60.376 525.128 60.376C530.419 60.376 534.813 61.9547 538.312 65.112C541.896 68.184 543.731 72.1947 543.816 77.144V119H525.896V83.8C525.811 81.3253 525.128 79.3627 523.848 77.912C522.653 76.376 520.605 75.608 517.704 75.608C514.973 75.608 512.584 76.504 510.536 78.296C508.488 80.088 506.909 82.52 505.8 85.592C504.691 88.664 504.136 92.2053 504.136 96.216V119H486.216V63.064H502.472ZM609.704 114.008C607.229 115.971 604.115 117.549 600.36 118.744C596.691 119.939 593.064 120.536 589.48 120.536C583.08 120.536 577.491 119.384 572.712 117.08C568.019 114.691 564.349 111.32 561.704 106.968C559.144 102.531 557.864 97.1973 557.864 90.968C557.864 84.7387 559.272 79.448 562.088 75.096C564.904 70.6587 568.573 67.288 573.096 64.984C577.704 62.68 582.525 61.528 587.56 61.528C592.595 61.528 596.947 62.2107 600.616 63.576C604.371 64.9413 607.571 66.7333 610.216 68.952L601.512 80.472C600.317 79.5333 598.653 78.5947 596.52 77.656C594.472 76.632 592.04 76.12 589.224 76.12C586.749 76.12 584.488 76.76 582.44 78.04C580.392 79.32 578.771 81.0693 577.576 83.288C576.381 85.5067 575.784 88.0667 575.784 90.968C575.784 93.6987 576.424 96.216 577.704 98.52C578.984 100.824 580.733 102.659 582.952 104.024C585.256 105.304 587.944 105.944 591.016 105.944C592.979 105.944 594.771 105.688 596.392 105.176C598.099 104.579 599.549 103.768 600.744 102.744L609.704 114.008ZM650.986 120.536C644.159 120.536 638.357 119.256 633.578 116.696C628.885 114.136 625.301 110.595 622.826 106.072C620.351 101.549 619.114 96.344 619.114 90.456C619.114 84.824 620.565 79.7467 623.466 75.224C626.367 70.7013 630.25 67.1173 635.114 64.472C639.978 61.7413 645.397 60.376 651.37 60.376C659.391 60.376 665.962 62.7227 671.082 67.416C676.287 72.024 679.658 78.7227 681.194 87.512L637.674 101.336L633.706 91.608L665.194 80.984L661.482 82.648C660.799 80.4293 659.562 78.5093 657.77 76.888C656.063 75.1813 653.461 74.328 649.962 74.328C647.317 74.328 644.97 74.968 642.922 76.248C640.959 77.4427 639.423 79.192 638.314 81.496C637.29 83.7147 636.778 86.36 636.778 89.432C636.778 92.9307 637.418 95.8747 638.698 98.264C639.978 100.568 641.727 102.317 643.946 103.512C646.165 104.707 648.639 105.304 651.37 105.304C653.333 105.304 655.21 104.963 657.002 104.28C658.879 103.597 660.714 102.701 662.506 101.592L670.442 114.904C667.455 116.611 664.213 117.976 660.714 119C657.301 120.024 654.058 120.536 650.986 120.536Z" fill="#1C1D53"/>
<path d="M692.03 14.536H729.178V24.896H702.76V36.514H726.144V46.874H702.76V58.64H730.214V69H692.03V14.536ZM754.265 46.948L760.407 36.662H770.693L757.891 54.422L754.265 46.948ZM772.469 69H759.963L735.025 36.662H747.753L772.469 69ZM752.933 58.64L745.681 69H735.395L748.197 51.684L752.933 58.64ZM798.84 69.888C796.916 69.888 795.017 69.5427 793.142 68.852C791.317 68.112 789.788 67.076 788.554 65.744L788.85 62.71V84.54H778.564V35.922H787.444L788.924 42.212L788.11 39.992C789.788 38.5613 791.662 37.3773 793.734 36.44C795.806 35.5027 798.199 35.034 800.912 35.034C803.922 35.034 806.61 35.7493 808.978 37.18C811.346 38.5613 813.196 40.584 814.528 43.248C815.91 45.8627 816.6 49.02 816.6 52.72C816.6 56.3707 815.836 59.4787 814.306 62.044C812.777 64.6093 810.68 66.558 808.016 67.89C805.352 69.222 802.294 69.888 798.84 69.888ZM796.768 61.748C798.446 61.748 799.975 61.378 801.356 60.638C802.787 59.898 803.922 58.862 804.76 57.53C805.648 56.1487 806.092 54.5947 806.092 52.868C806.092 51.0427 805.698 49.464 804.908 48.132C804.168 46.7507 803.132 45.69 801.8 44.95C800.518 44.1607 799.087 43.766 797.508 43.766C796.127 43.766 794.894 43.9633 793.808 44.358C792.772 44.7033 791.835 45.246 790.996 45.986C790.207 46.6767 789.516 47.5647 788.924 48.65V56.568C789.319 57.604 789.886 58.5167 790.626 59.306C791.366 60.0953 792.254 60.712 793.29 61.156C794.376 61.5507 795.535 61.748 796.768 61.748ZM824.742 10.614H835.102V69H824.742V10.614ZM843.255 52.424C843.255 49.1187 844.02 46.1587 845.549 43.544C847.128 40.9293 849.323 38.882 852.135 37.402C854.947 35.8727 858.179 35.108 861.829 35.108C865.529 35.108 868.736 35.8727 871.449 37.402C874.163 38.882 876.235 40.9293 877.665 43.544C879.145 46.1587 879.885 49.1187 879.885 52.424C879.885 55.7293 879.145 58.714 877.665 61.378C876.235 63.9927 874.163 66.0647 871.449 67.594C868.736 69.1233 865.48 69.888 861.681 69.888C858.129 69.888 854.947 69.1973 852.135 67.816C849.373 66.4347 847.202 64.4367 845.623 61.822C844.045 59.2073 843.255 56.0747 843.255 52.424ZM853.689 52.498C853.689 54.1753 854.035 55.7047 854.725 57.086C855.416 58.418 856.353 59.4787 857.537 60.268C858.721 61.0573 860.053 61.452 861.533 61.452C863.161 61.452 864.567 61.0573 865.751 60.268C866.935 59.4787 867.848 58.418 868.489 57.086C869.131 55.7047 869.451 54.1753 869.451 52.498C869.451 50.7713 869.131 49.242 868.489 47.91C867.848 46.578 866.935 45.5173 865.751 44.728C864.567 43.9387 863.161 43.544 861.533 43.544C860.053 43.544 858.721 43.9387 857.537 44.728C856.353 45.5173 855.416 46.578 854.725 47.91C854.035 49.242 853.689 50.7713 853.689 52.498ZM897.371 36.662L898.333 45.542L898.111 44.21C899.048 42.286 900.331 40.658 901.959 39.326C903.587 37.9447 905.19 36.884 906.769 36.144C908.397 35.404 909.63 35.034 910.469 35.034L909.951 45.394C907.533 45.098 905.461 45.4927 903.735 46.578C902.008 47.6633 900.676 49.094 899.739 50.87C898.801 52.646 898.333 54.4713 898.333 56.346V69H888.047V36.662H897.371ZM932.863 69.888C928.916 69.888 925.562 69.148 922.799 67.668C920.086 66.188 918.014 64.1407 916.583 61.526C915.152 58.9113 914.437 55.902 914.437 52.498C914.437 49.242 915.276 46.3067 916.953 43.692C918.63 41.0773 920.875 39.0053 923.687 37.476C926.499 35.8973 929.632 35.108 933.085 35.108C937.722 35.108 941.521 36.4647 944.481 39.178C947.49 41.842 949.439 45.7147 950.327 50.796L925.167 58.788L922.873 53.164L941.077 47.022L938.931 47.984C938.536 46.7013 937.821 45.5913 936.785 44.654C935.798 43.6673 934.294 43.174 932.271 43.174C930.742 43.174 929.385 43.544 928.201 44.284C927.066 44.9747 926.178 45.986 925.537 47.318C924.945 48.6007 924.649 50.13 924.649 51.906C924.649 53.9287 925.019 55.6307 925.759 57.012C926.499 58.344 927.51 59.3553 928.793 60.046C930.076 60.7367 931.506 61.082 933.085 61.082C934.22 61.082 935.305 60.8847 936.341 60.49C937.426 60.0953 938.487 59.5773 939.523 58.936L944.111 66.632C942.384 67.6187 940.51 68.408 938.487 69C936.514 69.592 934.639 69.888 932.863 69.888ZM967.179 36.662L968.141 45.542L967.919 44.21C968.857 42.286 970.139 40.658 971.767 39.326C973.395 37.9447 974.999 36.884 976.577 36.144C978.205 35.404 979.439 35.034 980.277 35.034L979.759 45.394C977.342 45.098 975.27 45.4927 973.543 46.578C971.817 47.6633 970.485 49.094 969.547 50.87C968.61 52.646 968.141 54.4713 968.141 56.346V69H957.855V36.662H967.179ZM998.715 69.666C996.051 69.666 993.56 69.1973 991.241 68.26C988.972 67.3227 987.048 66.0153 985.469 64.338L989.761 58.64C991.34 60.0707 992.795 61.1067 994.127 61.748C995.508 62.34 996.742 62.636 997.827 62.636C998.666 62.636 999.406 62.562 1000.05 62.414C1000.74 62.2167 1001.28 61.9453 1001.67 61.6C1002.07 61.2053 1002.27 60.712 1002.27 60.12C1002.27 59.2813 1001.92 58.6153 1001.23 58.122C1000.59 57.6287 999.751 57.234 998.715 56.938C997.679 56.5927 996.569 56.2473 995.385 55.902C992.425 54.9647 990.279 53.608 988.947 51.832C987.664 50.0067 987.023 48.0333 987.023 45.912C987.023 44.284 987.442 42.656 988.281 41.028C989.169 39.3507 990.55 37.9693 992.425 36.884C994.349 35.7493 996.816 35.182 999.825 35.182C1002.54 35.182 1004.83 35.4533 1006.71 35.996C1008.58 36.5387 1010.36 37.4267 1012.03 38.66L1008.11 44.728C1007.18 43.988 1006.11 43.3713 1004.93 42.878C1003.8 42.3353 1002.74 42.0393 1001.75 41.99C1000.86 41.9407 1000.1 42.0393 999.455 42.286C998.863 42.5327 998.394 42.8533 998.049 43.248C997.704 43.6427 997.531 44.062 997.531 44.506C997.482 45.4433 997.827 46.1833 998.567 46.726C999.356 47.2687 1000.34 47.688 1001.53 47.984C1002.71 48.28 1003.87 48.6253 1005 49.02C1006.58 49.5133 1007.94 50.1793 1009.07 51.018C1010.21 51.8567 1011.07 52.868 1011.66 54.052C1012.31 55.1867 1012.63 56.568 1012.63 58.196C1012.63 60.1693 1012.11 62.044 1011.07 63.82C1010.09 65.5467 1008.56 66.9527 1006.48 68.038C1004.46 69.1233 1001.87 69.666 998.715 69.666Z" fill="#D30808"/>
</svg>
